<?xml version="1.0" encoding="UTF-8"?>
<svg version="1.1" xmlns="http://www.w3.org/2000/svg" width="48" height="48">
<path d="M0 0 C15.84 0 31.68 0 48 0 C48 15.84 48 31.68 48 48 C32.16 48 16.32 48 0 48 C0 32.16 0 16.32 0 0 Z " fill="#AA56FF" transform="translate(0,0)"/>
<path d="M0 0 C3.08439149 1.37555377 4.59697007 2.9298404 6 6 C6.99916964 12.70031405 7.07167291 18.3791052 3 24 C0.8125 25.8125 0.8125 25.8125 -1 27 C1.31 28.65 3.62 30.3 6 32 C4.02 32.495 4.02 32.495 2 33 C0.54848198 31.7794053 -0.89780296 30.55057594 -2.2890625 29.26171875 C-4.25731844 27.81024234 -5.73605387 27.44848245 -8.125 27 C-11.36818844 26.34888186 -11.94210112 26.05789888 -14.4375 23.5625 C-17.48246477 18.56875777 -17.65698611 13.70867659 -17 8 C-13.03130018 0.3363038 -8.23177851 -1.36558186 0 0 Z " fill="#AD5BFF" transform="translate(26,7)"/>
<path d="M0 0 C0.66 0.33 1.32 0.66 2 1 C1.2884375 1.6496875 1.2884375 1.6496875 0.5625 2.3125 C-2.71515815 5.85237081 -2.14130985 9.95589558 -2.1015625 14.48046875 C-1.9845923 17.38222956 -1.59810881 20.15898317 -1 23 C2.01237582 23.59217644 4.92458712 24.04241949 8 24 C11.07049877 21.85065086 11.81691629 20.54925112 13 17 C13.1447963 15.04524991 13.22067502 13.0848862 13.25 11.125 C13.27578125 10.09632812 13.3015625 9.06765625 13.328125 8.0078125 C12.95911067 4.6251811 11.93550508 2.76064146 10 0 C12.8996942 1.29986292 15.06376556 2.45289723 17 5 C17.3984375 7.9609375 17.3984375 7.9609375 17.375 11.375 C17.38273437 12.49648438 17.39046875 13.61796875 17.3984375 14.7734375 C16.84099617 19.28761923 15.29458237 21.92734604 11.8125 24.8125 C11.214375 25.204375 10.61625 25.59625 10 26 C12.31 27.65 14.62 29.3 17 31 C15.68 31.33 14.36 31.66 13 32 C11.54848198 30.7794053 10.10219704 29.55057594 8.7109375 28.26171875 C6.74268156 26.81024234 5.26394613 26.44848245 2.875 26 C-0.36818844 25.34888186 -0.94210112 25.05789888 -3.4375 22.5625 C-6.47980025 17.57312759 -6.66435787 12.70461956 -6 7 C-4.68648567 3.8874068 -3.09444052 1.54722026 0 0 Z " fill="#E5CCFF" transform="translate(15,8)"/>
<path d="M0 0 C0.66 0.33 1.32 0.66 2 1 C1.2884375 1.6496875 1.2884375 1.6496875 0.5625 2.3125 C-2.6828461 5.81747379 -2.20090276 9.92186408 -2.16796875 14.4140625 C-1.94359191 17.86842218 -1.13448875 20.73834485 0 24 C-2.5691997 23.05796011 -3.78416047 22.34534325 -5.25 20 C-6.46631605 15.13473582 -7.18624328 9.7865526 -5.171875 5.0546875 C-3.70402512 2.78718805 -2.43512757 1.21756379 0 0 Z " fill="#F9F4FF" transform="translate(15,8)"/>
<path d="M0 0 C2.46800047 1.15173355 4.04783565 2.04783565 6 4 C6.1953125 6.8203125 6.1953125 6.8203125 6.125 10.125 C6.10695313 11.22070312 6.08890625 12.31640625 6.0703125 13.4453125 C6.04710937 14.28835937 6.02390625 15.13140625 6 16 C5.34 16.33 4.68 16.66 4 17 C3.96261719 16.19175781 3.92523437 15.38351563 3.88671875 14.55078125 C3.82097656 13.48214844 3.75523438 12.41351563 3.6875 11.3125 C3.62949219 10.25675781 3.57148438 9.20101563 3.51171875 8.11328125 C2.96217936 4.76990036 1.91325982 2.76473738 0 0 Z " fill="#F9F3FF" transform="translate(25,8)"/>
<path d="M0 0 C3.93673644 1.31224548 6.22719294 2.91910327 9 6 C3.50847458 5.38983051 3.50847458 5.38983051 1.125 3.5625 C0 2 0 2 0 0 Z " fill="#F5EBFF" transform="translate(23,34)"/>
<path d="M0 0 C0.66 0.33 1.32 0.66 2 1 C1.2884375 1.6496875 1.2884375 1.6496875 0.5625 2.3125 C-1.23686957 4.02309613 -1.23686957 4.02309613 -2 7 C-4.0625 8.1875 -4.0625 8.1875 -6 9 C-4.83857315 4.64464931 -3.92300495 2.35380297 0 0 Z " fill="#ECDAFF" transform="translate(15,8)"/>
</svg>
